<svg width="64" height="65" viewBox="0 0 64 65" fill="none"
  xmlns="http://www.w3.org/2000/svg">
  <path fill="currentColor" d="M6 32V33C6 34.75 4.625 36 3 36C1.25 36 0 34.75 0 33V32C0 14.375 14.25 0 32 0C42.625 0 52 5.25 57.875 13.25C58.875 14.625 58.5 16.5 57.25 17.5C55.875 18.5 54 18.125 53 16.75C48.25 10.25 40.625 6 32 6C17.625 6 6 17.75 6 32ZM63.25 25.5C63.75 27.625 64 29.75 64 32.125V33.125C64 34.75 62.625 36.125 61 36.125C59.25 36.125 58 34.75 58 33.125V32.125C58 30.25 57.75 28.375 57.375 26.625C57 25.125 58.125 23.5 59.75 23.125C61.375 22.75 62.875 23.875 63.25 25.5ZM27.75 16.125C26.125 16.5 24.5 15.5 24 14C23.625 12.375 24.625 10.75 26.125 10.25C28 9.75 30 9.5 32 9.5C44.375 9.5 54.5 19.625 54.5 32C54.5 36.125 54.25 40.25 54 43.25C53.875 44.875 53.75 46.125 53.625 47C53.5 47.5 53.5 47.75 53.5 48V48.375C53.5 48.375 53.5 48.375 50.5 48L53.5 48.375C53.25 50 51.75 51.25 50.125 51C48.5 50.75 47.25 49.375 47.5 47.625V47.375C47.5 47.125 47.625 46.75 47.625 46.375C47.75 45.5 47.875 44.25 48 42.75C48.25 39.875 48.5 36 48.5 32C48.5 22.875 41.125 15.5 32 15.5C30.5 15.5 29 15.75 27.75 16.125ZM18.375 22.625C16.5 25.25 15.375 28.5 15.375 32C15.375 36.25 14.875 40.25 14.375 43.125C14.125 44.5 13.875 45.75 13.625 46.5C13.5 47 13.5 47.25 13.375 47.5C13.375 47.625 13.375 47.75 13.375 47.75L13.25 47.875C13.25 47.875 13.25 47.875 10.375 47L13.375 47.875C12.875 49.5 11.25 50.375 9.625 50C8 49.5 7.125 47.875 7.5 46.25V46.125C7.625 46.125 7.625 46 7.625 46C7.625 45.75 7.75 45.5 7.875 45.125C8 44.375 8.25 43.375 8.5 42C9 39.375 9.375 35.875 9.375 32C9.375 27.25 10.875 22.75 13.5 19.125C14.375 17.75 16.25 17.5 17.625 18.375C19 19.375 19.375 21.25 18.375 22.625ZM32 25C28.125 25 25 28.25 25 32C25 33.875 24.875 35.5 24.875 37.125C24.625 40.875 24.25 44.125 23.875 46.5C23.625 48.25 23.375 49.5 23.25 50.375C23.125 50.875 23 51.25 23 51.5C22.875 51.625 22.875 51.75 22.875 51.75V51.875C22.875 51.875 22.875 51.875 20 51L22.875 51.875C22.375 53.5 20.75 54.375 19.125 53.875C17.5 53.5 16.625 51.75 17 50.25L17.125 50.125C17.125 50.125 17.125 50.125 17.125 50C17.125 49.75 17.25 49.5 17.375 49.125C17.5 48.375 17.75 47.125 18 45.625C18.5 42.5 18.875 37.875 18.875 32C18.875 24.875 24.75 19 31.875 19C39.125 19 44.875 24.875 44.875 32C44.875 38.125 44.625 43.25 44.25 46.875C44 48.625 43.875 50 43.75 51C43.625 51.5 43.625 51.875 43.5 52.125C43.5 52.25 43.5 52.375 43.5 52.5V52.625C43.5 52.625 43.5 52.625 40.5 52L43.5 52.625C43.25 54.25 41.625 55.25 40 55C38.375 54.75 37.25 53.125 37.625 51.5C37.625 51.375 37.625 51.375 37.625 51.25C37.625 51 37.75 50.625 37.75 50.25C37.875 49.25 38.125 48 38.25 46.25C38.625 42.875 39 38 39 32C39 28.25 35.75 25 32 25ZM35 32C35 42.25 33.875 49.75 32.875 54.75C32.375 57.125 31.75 59 31.375 60.25C31.25 60.875 31 61.375 30.875 61.75C30.875 61.875 30.75 62 30.75 62.125V62.25H30.625C30.625 62.25 30.625 62.25 28 61L30.625 62.25C30 63.75 28.25 64.5 26.75 63.75C25.25 63.125 24.5 61.375 25.25 59.875L28.125 46.375C28.625 42.5 29 37.75 29 32C29 30.375 30.25 29 32 29C33.625 29 35 30.375 35 32ZM28.125 46.375L32 29L28.125 46.375ZM28.125 46.375L25.25 59.875C25.25 59.75 25.25 59.625 25.375 59.625C25.375 59.375 25.5 59 25.75 58.375C26 57.375 26.5 55.75 27 53.5C27.375 51.5 27.875 49.125 28.125 46.375Z" />
</svg>
