<svg width="56" height="64" viewBox="0 0 56 64" fill="none"
  xmlns="http://www.w3.org/2000/svg">
  <path fill="currentColor" d="M20 50C20 51.125 19 52 18 52C16.875 52 16 51.125 16 50V24C16 23 16.875 22 18 22C19 22 20 23 20 24V50ZM30 50C30 51.125 29 52 28 52C26.875 52 26 51.125 26 50V24C26 23 26.875 22 28 22C29 22 30 23 30 24V50ZM40 50C40 51.125 39 52 38 52C36.875 52 36 51.125 36 50V24C36 23 36.875 22 38 22C39 22 40 23 40 24V50ZM39.625 3.125L44.25 10H53C54.625 10 56 11.375 56 13C56 14.75 54.625 16 53 16H52V54C52 59.625 47.5 64 42 64H14C8.375 64 4 59.625 4 54V16H3C1.25 16 0 14.75 0 13C0 11.375 1.25 10 3 10H11.625L16.25 3.125C17.5 1.25 19.75 0 22.125 0H33.75C36.125 0 38.375 1.25 39.625 3.125ZM18.875 10H37L34.625 6.5C34.5 6.25 34.125 6 33.75 6H22.125C21.75 6 21.375 6.25 21.25 6.5L18.875 10ZM10 54C10 56.25 11.75 58 14 58H42C44.125 58 46 56.25 46 54V16H10V54Z"/>
</svg>
